<?xml version="1.0" encoding="UTF-8"?>
<svg width="100%" height="100%" version="1.1" viewBox="0 0 59.109 17.286" xmlns="http://www.w3.org/2000/svg">
 <g transform="translate(-66.82 -74.639)">
  <g stroke-width=".26458" aria-label="Zachary ">
   <path fill="#FFFFFF" d="m68.578 87.006h4.8796v1.4619h-6.6379v-1.7385l5.0969-10.629h-4.6426v-1.4619h6.3811v1.7385z"/>
   <path fill="#FFFFFF" d="m81.953 88.468q-0.25682 0-0.57291-0.15804-0.29633-0.15804-0.51365-0.43462-0.45438 0.59267-1.2051 0.59267h-1.3631q-1.5014 0-2.1929-0.59267-0.67169-0.61242-0.67169-2.0743v-0.39511q0-3.0621 2.8843-3.0621h2.0546v-0.98778q0-0.61242-0.37536-0.94827t-1.1063-0.33584h-2.667v-1.4817h2.4694q1.7187 0 2.5287 0.75071 0.82974 0.75071 0.82974 2.4102v4.7413q0 0.29633 0.21731 0.45438 0.23707 0.13829 0.77047 0.13829v1.3829zm-2.4892-1.4817q0.59267 0 0.75071-0.27658 0.15804-0.27658 0.15804-0.7112v-2.1731h-2.0743q-0.51364 0-0.84949 0.33584-0.33585 0.33584-0.33585 0.84949v0.98778q0 0.51365 0.23707 0.75071 0.23707 0.23707 0.75071 0.23707z"/>
   <path fill="#FFFFFF" d="m88.571 88.468q-1.7385 0-2.5485-0.73096-0.80998-0.75071-0.80998-2.4299v-3.556q0-1.6595 0.80998-2.4102 0.82974-0.75071 2.5485-0.75071h2.1534v1.4817h-2.3509q-0.73096 0-1.1063 0.33584-0.37536 0.33584-0.37536 0.94827v4.3462q0 0.61242 0.37536 0.94827 0.37536 0.33584 1.1063 0.33584h2.3509v1.4817z"/>
   <path fill="#FFFFFF" d="m93.292 74.639h1.6792v4.3462q0.59267-0.39511 1.4817-0.39511h0.51364q1.6002 0 2.3707 0.75071 0.79022 0.75071 0.79022 2.4102v6.7169h-1.6792v-7.112q0-0.59267-0.3556-0.92851-0.33584-0.3556-0.92851-0.3556h-0.90876q-0.63218 0-0.96802 0.33584-0.31609 0.31609-0.31609 0.69145v7.3688h-1.6792z"/>
   <path fill="#FFFFFF" d="m109.02 88.468q-0.25682 0-0.57291-0.15804-0.29634-0.15804-0.51365-0.43462-0.45438 0.59267-1.2051 0.59267h-1.3631q-1.5014 0-2.1929-0.59267-0.67169-0.61242-0.67169-2.0743v-0.39511q0-3.0621 2.8843-3.0621h2.0546v-0.98778q0-0.61242-0.37535-0.94827-0.37536-0.33584-1.1063-0.33584h-2.667v-1.4817h2.4694q1.7187 0 2.5287 0.75071 0.82974 0.75071 0.82974 2.4102v4.7413q0 0.29633 0.21731 0.45438 0.23707 0.13829 0.77047 0.13829v1.3829zm-2.4892-1.4817q0.59266 0 0.75071-0.27658 0.15804-0.27658 0.15804-0.7112v-2.1731h-2.0743q-0.51365 0-0.8495 0.33584-0.33584 0.33584-0.33584 0.84949v0.98778q0 0.51365 0.23707 0.75071 0.23706 0.23707 0.75071 0.23707z"/>
   <path fill="#FFFFFF" d="m112.48 78.59h1.5804v0.5334q0.65193-0.5334 1.5804-0.5334h1.4422v1.5804h-1.6397q-0.65194 0-0.96803 0.43462t-0.31609 0.84949v7.0132h-1.6792z"/>
   <path fill="#FFFFFF" d="m123.06 89.338q-0.23706 0.889-0.49389 1.4224-0.25682 0.55316-0.73095 0.84949-0.45438 0.31609-1.2248 0.31609-0.41487 0-1.1261-0.11853v-1.4422q0.55316 0.07902 1.0273 0.07902 0.55316 0 0.79022-0.889l0.31609-1.0866h-0.39511l-3.0621-9.8778h1.8175l2.2916 8.1591 1.936-8.1591h1.7187z"/>
  </g>
 </g>
</svg>
