<?xml version="1.0" encoding="UTF-8" standalone="no"?>
<!-- Created with Inkscape (http://www.inkscape.org/) -->

<svg
   width="63.37582mm"
   height="17.18737mm"
   viewBox="0 0 63.37582 17.18737"
   version="1.1"
   id="svg800"
   inkscape:version="1.2.2 (732a01da63, 2022-12-09, custom)"
   sodipodi:docname="last_name.svg"
   xmlns:inkscape="http://www.inkscape.org/namespaces/inkscape"
   xmlns:sodipodi="http://sodipodi.sourceforge.net/DTD/sodipodi-0.dtd"
   xmlns="http://www.w3.org/2000/svg"
   xmlns:svg="http://www.w3.org/2000/svg">
  <sodipodi:namedview
     id="namedview802"
     pagecolor="#ffffff"
     bordercolor="#000000"
     borderopacity="0.25"
     inkscape:showpageshadow="2"
     inkscape:pageopacity="0.0"
     inkscape:pagecheckerboard="0"
     inkscape:deskcolor="#d1d1d1"
     inkscape:document-units="mm"
     showgrid="false"
     inkscape:zoom="0.89263468"
     inkscape:cx="155.15866"
     inkscape:cy="384.25574"
     inkscape:window-width="1452"
     inkscape:window-height="1205"
     inkscape:window-x="26"
     inkscape:window-y="23"
     inkscape:window-maximized="0"
     inkscape:current-layer="text595" />
  <defs
     id="defs797" />
  <g
     inkscape:label="Layer 1"
     inkscape:groupmode="layer"
     id="layer1"
     transform="translate(-64.348019,-46.834459)">
    <g
       aria-label="Berridge"
       id="text595"
       style="font-weight:bold;font-size:19.7556px;font-family:'Share Tech';-inkscape-font-specification:'Share Tech Bold';stroke-width:0.264583"
       transform="translate(-2.6669924,-85.267361)">
      <path
         d="m 74.127027,142.80936 q 0,1.69898 -0.790224,2.41018 -0.770468,0.7112 -2.568228,0.7112 h -3.753564 v -13.82892 h 3.516497 q 1.758248,0 2.568228,0.7112 0.829735,0.7112 0.829735,2.37067 v 1.12607 q 0,1.52118 -1.086558,2.29165 1.284114,0.7112 1.284114,2.42994 z m -1.916293,-7.80347 q 0,-0.75071 -0.355601,-1.08655 -0.335845,-0.33585 -1.086558,-0.33585 h -2.034827 v 4.36599 h 2.034827 q 0.612424,0 1.027291,-0.39511 0.414868,-0.39512 0.414868,-1.04705 z m 0.197556,5.84766 q 0,-0.65193 -0.395112,-1.02729 -0.395112,-0.39511 -1.047047,-0.39511 h -2.232383 v 5.01792 h 2.212627 q 0.750713,0 1.106314,-0.33584 0.355601,-0.35561 0.355601,-1.10632 z"
         id="path659" />
      <path
         d="m 80.350012,145.93074 q -1.738492,0 -2.548472,-0.73096 -0.80998,-0.75071 -0.80998,-2.42994 v -3.556 q 0,-1.69899 0.730958,-2.42994 0.730957,-0.73096 2.429938,-0.73096 h 0.533402 q 1.402647,0 2.113849,0.79022 0.730957,0.77047 0.730957,2.2719 v 2.56823 h -4.859878 v 1.48167 q 0,0.61242 0.375357,0.94827 0.375356,0.33584 1.106313,0.33584 h 2.746029 v 1.48167 z m 1.540937,-5.72912 v -1.48167 q 0,-0.51365 -0.335845,-0.84949 -0.335845,-0.33585 -0.849491,-0.33585 H 79.9549 q -0.711201,0 -1.007535,0.33585 -0.276579,0.31609 -0.276579,0.94826 v 1.3829 z"
         id="path661" />
      <path
         d="m 86.395218,136.05294 h 1.580448 v 0.5334 q 0.651935,-0.5334 1.580448,-0.5334 h 1.442159 v 1.58045 h -1.639715 q -0.651935,0 -0.968025,0.43462 -0.316089,0.43462 -0.316089,0.84949 v 7.01324 h -1.679226 z"
         id="path663" />
      <path
         d="m 92.973799,136.05294 h 1.580448 v 0.5334 q 0.651934,-0.5334 1.580448,-0.5334 h 1.442158 v 1.58045 h -1.639714 q -0.651935,0 -0.968025,0.43462 -0.316089,0.43462 -0.316089,0.84949 v 7.01324 h -1.679226 z"
         id="path665" />
      <path
         d="m 99.453601,133.87982 v -1.778 h 1.876779 v 1.778 z m 0.09878,12.05092 v -9.8778 h 1.679229 v 9.8778 z"
         id="path667" />
      <path
         d="m 109.54869,145.47636 q -0.65193,0.45438 -1.58045,0.45438 h -0.41487 q -1.73849,0 -2.54847,-0.73096 -0.80998,-0.75071 -0.80998,-2.42994 v -3.556 q 0,-1.65947 0.80998,-2.41019 0.82974,-0.75071 2.54847,-0.75071 h 1.89654 v -3.95112 h 1.67923 v 13.82892 h -1.58045 z m -1.38289,-1.02729 q 0.65193,0 0.96802,-0.33584 0.31609,-0.35561 0.31609,-0.75072 v -5.8279 h -2.09409 q -0.73096,0 -1.10631,0.33585 -0.37536,0.33584 -0.37536,0.94826 v 4.34624 q 0,0.61242 0.37536,0.94827 0.37535,0.33584 1.10631,0.33584 z"
         id="path669" />
      <path
         d="m 121.48106,146.62219 q 0,1.34338 -0.80998,1.99531 -0.79022,0.67169 -2.4892,0.67169 h -3.99063 v -1.48167 h 4.18818 q 0.7112,0 1.06681,-0.27658 0.3556,-0.27657 0.3556,-0.7112 v -0.63218 q 0,-0.45438 -0.3556,-0.7112 -0.35561,-0.27658 -1.06681,-0.27658 h -3.29918 v -2.72627 q -0.65194,-0.3556 -0.96803,-1.02729 -0.31609,-0.67169 -0.31609,-1.73849 v -0.49389 q 0,-1.65947 0.80998,-2.41019 0.82974,-0.75071 2.54848,-0.75071 h 4.03014 v 3.65479 q 0,1.48167 -0.80998,2.33116 -0.80998,0.82973 -2.15336,0.82973 h -1.46192 v 0.84949 h 1.42241 q 1.69898,0 2.4892,0.67169 0.80998,0.65194 0.80998,1.99532 z m -3.25967,-5.23524 q 0.61242,0 0.92851,-0.39511 0.31609,-0.39511 0.3556,-0.82973 v -2.6275 h -2.54847 q -0.73096,0 -1.10631,0.33585 -0.37536,0.33584 -0.37536,0.94826 v 1.28412 q 0,0.61242 0.37536,0.94827 0.37535,0.33584 1.10631,0.33584 z"
         id="path671" />
      <path
         d="m 127.21018,145.93074 q -1.73849,0 -2.54847,-0.73096 -0.80998,-0.75071 -0.80998,-2.42994 v -3.556 q 0,-1.69899 0.73095,-2.42994 0.73096,-0.73096 2.42994,-0.73096 h 0.5334 q 1.40265,0 2.11385,0.79022 0.73096,0.77047 0.73096,2.2719 v 2.56823 h -4.85988 v 1.48167 q 0,0.61242 0.37536,0.94827 0.37535,0.33584 1.10631,0.33584 h 2.74603 v 1.48167 z m 1.54093,-5.72912 v -1.48167 q 0,-0.51365 -0.33584,-0.84949 -0.33585,-0.33585 -0.84949,-0.33585 h -0.75071 q -0.71121,0 -1.00754,0.33585 -0.27658,0.31609 -0.27658,0.94826 v 1.3829 z"
         id="path673" />
    </g>
  </g>
</svg>
